PathFileType	4	(X/Y/Z)	2_1_35_p1_0-393.trc
DataRate	CameraRate	NumFrames	NumMarkers	Units	OrigDataRate	OrigDataStartFrame	OrigNumFrames
59.0	59.0	6	27	m	59.0	147	394
Frame#	Time	RHip			RKnee			RAnkle			RBigToe			RSmallToe			RHeel			LHip			LKnee			LAnkle			LBigToe			LSmallToe			LHeel			Neck			Head			Nose			RShoulder			RElbow			RWrist			RThumb			RIndex			RPinky			LShoulder			LElbow			LWrist			LThumb			LIndex			LPinky			
		X1	Y1	Z1	X2	Y2	Z2	X3	Y3	Z3	X4	Y4	Z4	X5	Y5	Z5	X6	Y6	Z6	X7	Y7	Z7	X8	Y8	Z8	X9	Y9	Z9	X10	Y10	Z10	X11	Y11	Z11	X12	Y12	Z12	X13	Y13	Z13	X14	Y14	Z14	X15	Y15	Z15	X16	Y16	Z16	X17	Y17	Z17	X18	Y18	Z18	X19	Y19	Z19	X20	Y20	Z20	X21	Y21	Z21	X22	Y22	Z22	X23	Y23	Z23	X24	Y24	Z24	X25	Y25	Z25	X26	Y26	Z26	X27	Y27	Z27	
147	2.4915254237288136	0.3269247093500389	0.5304373000780922	0.9455856474621871	0.3362000338997939	0.6941708895328815	1.416836080423234	0.31635468419796225	0.90300839409432	1.8287007164725013	0.3416056735897907	0.6973576044581065	1.8873109251750888	0.40032117239020143	0.7636961554195016	1.8977968171388102	0.28812901484982306	0.9438330365858681	1.8684105863192186	0.10521359372613098	0.49512161751458433	0.9467491987977386	0.08462664545326846	0.6773282709418134	1.4030244542947856	0.054012513163538625	0.875667740385324	1.8173268780309717	0.07673043397589924	0.7035107340996606	1.888731492119662	0.0014464223386428283	0.7259115319958154	1.8778361050867658	0.06312200335591107	0.9672752232458445	1.8827638034832574	0.23178366126242195	0.30972753891402427	0.27765560784743454	0.24556898257505905	0.1836842706263148	0.04267521866350222	0.2520984328709949	0.17476417814670217	0.18726693987070595	0.39845191433448157	0.3788427459131232	0.36204462690323463	0.4347906016138044	0.48129788298195897	0.682747218540081	0.43654620506387287	0.5140322575920924	0.9587692176424069	0.37634980133629914	0.47102826995822966	1.0953335896422587	0.3884161857139939	0.4760001176578363	1.1095126255618653	0.4373037442109929	0.5680936356346393	1.1107883100044718	0.07424843246793948	0.35735855322683857	0.36283721552973464	0.00585957497926626	0.4223343595765285	0.6586004093512946	0.012988999925372278	0.46020264650020265	0.9587019589025335	0.07722472245557883	0.46150158040973804	1.0585421277547629	0.05290433442035674	0.4293585225576728	1.0726123269345913	-0.002863239864750019	0.5036215757118424	1.0768539482266515
148	2.5084745762711864	0.3270083219079833	0.530120224313608	0.9454454782540737	0.3361333931072517	0.6943251535904974	1.416922432618457	0.31638185132561325	0.9029761946857803	1.8287008642244773	0.3413752494287904	0.6969829079827702	1.8870915367634145	0.39605497007031837	0.7620184089834018	1.8977491258964567	0.2881212086180043	0.9435335995822788	1.8682542217692424	0.10464783494244116	0.49606188024128967	0.950313920112421	0.08460156206543566	0.6772586750778696	1.4029829419284534	0.05340092716474862	0.8720380846369618	1.8122361450188456	0.07661041278153297	0.7037156452337845	1.8887380265005096	0.0014503882424957298	0.7258992623663623	1.877825447816893	0.06310999260573395	0.9674661986218056	1.88297852047917	0.22660985214238805	0.32158545957907037	0.2753913424470387	0.24552726902879188	0.18382207877281223	0.04265044550986192	0.2521960042668155	0.1750848778468078	0.19017740185447463	0.39839459959484597	0.378183090324465	0.358581635340658	0.4347588268329244	0.48125017055500496	0.6826917414061359	0.4365420494982522	0.51405131856432	0.9587789743801224	0.3762024768651144	0.47132067274481015	1.0954038198430391	0.38828639248114327	0.4761615386587796	1.1095267801301376	0.4332797590879924	0.566445665977087	1.1108868289291365	0.07418717597877414	0.3574050523559713	0.36283822725429415	-0.0003050456296162618	0.43519004862238775	0.6650664083946488	0.01030412298279873	0.47208766642800726	0.9590539013184445	0.07345916638155554	0.45916478265336785	1.0584986000699754	0.05280308434016483	0.4293102929223669	1.0725795385073298	-0.0029071588756829185	0.5037372840901484	1.0768498914747422
149	2.5254237288135593	0.3269605317734841	0.5303887370565474	0.9455277570858986	0.33608636115656215	0.694326480759457	1.416977342548192	0.31621807078660097	0.9029857749746109	1.8285990014493207	0.3417614980114089	0.6968684619506378	1.8872478022651347	0.4003511689718875	0.7637536547794114	1.8979537395880803	0.28801916685246814	0.9436098491335699	1.8681411862492567	0.10521697172664586	0.49496482255237445	0.9467910603404404	0.0845717293977085	0.6773200997650097	1.4029758919816961	0.054020635004779737	0.8757350276051814	1.8173847396995204	0.07642113693445704	0.7040796265810886	1.888930003435125	0.0013720474148966755	0.7261381729404026	1.8780021465641832	0.06322724502937777	0.9672352541356952	1.8828931289897972	0.23175841662743896	0.309773298975874	0.2776879540794915	0.2455088684349318	0.1840366933625797	0.04267758091814469	0.25209279889847586	0.1746993676495435	0.18726356847328582	0.39837732519962754	0.37820350308797773	0.35861847930674917	0.43485045868650507	0.48087809402481757	0.6826480358692403	0.43650947038204985	0.514033310381796	0.9588079898535634	0.375663198560883	0.472235710515689	1.0918056198141322	0.3836676579755515	0.4890284384560492	1.1109784087860826	0.4332115032271786	0.5664297373749362	1.1109364446078716	0.07416906278860123	0.3573161797266835	0.36284363759521393	0.006081718554678715	0.4225271925678651	0.6621852056879148	0.010304721241534547	0.47206160909856343	0.9591338376597404	0.07190278555335579	0.4463685809209505	1.0579742230695732	0.049514834698946235	0.4278746129998346	1.072822844253371	-0.0029015161291623182	0.5036426448101304	1.0769109988585648
150	2.542372881355932	0.3270237497572595	0.5303317249441113	0.9454972204794748	0.336107959615783	0.6942041676730187	1.4170025592407862	0.3160469721346193	0.9029706442439008	1.8286278540692176	0.3412192113228843	0.6973073347195939	1.8871164121929696	0.3960025797233363	0.7623151644960963	1.8978154962088292	0.2879245196285532	0.9434974518665868	1.868147716495865	0.10464876327615949	0.49616484431834057	0.9503151701733517	0.08451507445142083	0.6776085680894127	1.4030388228349333	0.05396784090028911	0.8759671898829297	1.8174813853035785	0.07657179979263255	0.7038524427167366	1.8887865042145955	0.0026194079813700133	0.7243677420976913	1.8738532552832723	0.06525996621653031	0.9858797899543326	1.8877515003640761	0.23181318416811175	0.30981823758599764	0.2777176071019128	0.24549677078930482	0.18406796718652954	0.04271524310775398	0.2520781927257943	0.1747118190076442	0.18727344698801285	0.39839507391984086	0.37823072773990185	0.3585405615226223	0.4347821128287054	0.48108215016180444	0.6826818366994147	0.43648381733528024	0.5141597674473172	0.9587756110145587	0.37563970309887273	0.4722339017803705	1.091738272248585	0.3832703529161292	0.4894241795800919	1.1075609829442297	0.4329648984603696	0.5665582150455885	1.1108848100667863	0.07421509965941882	0.3572506853893114	0.3628294415930338	0.0001263213553150003	0.43435650240004897	0.661601033764373	0.009176242371679584	0.45875548574124064	0.9590153967522485	0.07744117916030081	0.4341249621048963	1.0568125533782955	0.05286369031027352	0.4290185240754896	1.0726449476086477	-0.0028563150396105196	0.5035771178896553	1.0769361441650294
151	2.559322033898305	0.3269597565828422	0.5301622938662424	0.9454092375851236	0.33607163708380094	0.6942504199426641	1.416948264876213	0.3160669874671728	0.9028626625342572	1.8286570556100845	0.3415574455241374	0.6974934880255128	1.8873510704160683	0.39927230413182807	0.7606511338491523	1.8930519810531716	0.28793462713573376	0.9434753683433583	1.8682968923271024	0.10509208151164026	0.49494134304910387	0.9466334425649536	0.08451657321196131	0.6775621730057438	1.4030498492989085	0.054048909891052724	0.8760022857397566	1.8175345709697095	0.07660847427344408	0.7038434759443986	1.888749701585184	0.003565408616830383	0.7402349166038111	1.8783872057661664	0.06526914361460871	0.9857499808926345	1.8877490814441527	0.23183198214278866	0.3096897087928519	0.27775473839474235	0.24552546652340637	0.1839807389749506	0.04281528079782046	0.25206483340464586	0.17455298845870676	0.18731305510533974	0.39836678084846544	0.37798725668883587	0.35854282143930644	0.4346375161219591	0.4813259678274366	0.6827299123298199	0.43649914436966986	0.5140358435250307	0.9587675627346548	0.3755415267001039	0.4721350976989971	1.0916716084772522	0.3831653471506785	0.4893249703138395	1.10752017942444	0.43295215919659835	0.5665910934337073	1.1111996051032862	0.07423793945517561	0.35718871989371814	0.36283602643365126	-0.003599406734961393	0.43255942490368726	0.6617215077788418	0.010302658498960723	0.471978021193356	0.9591364036431275	0.07744242510533801	0.4341071106388273	1.0568305124878123	0.04964132160668979	0.4274919544148042	1.07288843440472	-0.002907802007318544	0.5037095867461913	1.0770177663354434
152	2.5762711864406778	0.3270125975785079	0.5301422542999777	0.9455150283973133	0.3360794930599043	0.6941712756692701	1.4170556968601586	0.3161356551840803	0.9024603550597481	1.8284871250864578	0.34136659554707516	0.6962762055274831	1.886773790674594	0.3949967864577507	0.7583282317666795	1.8924790089191108	0.28796239121298906	0.9433376343804102	1.8680802765963747	0.10511762014050643	0.49506214084469136	0.9467340588364486	0.08459180455660045	0.6773984213525912	1.4029144233827702	0.0551011203685186	0.8740113066886251	1.8127122738380954	0.07658886773715169	0.7036062479354623	1.8886878919833732	0.002553211599424586	0.7244575312354044	1.8738417120319188	0.06319857915979098	0.9672911687185077	1.8826531214932367	0.23180510484785422	0.3098321563330127	0.27778430666120824	0.24546629314914106	0.1840169053531299	0.04278549527369319	0.25204420817030265	0.17619652306288455	0.1902595570223716	0.39832259768696343	0.37809645433109634	0.35852627745007964	0.4346558974746629	0.48145506191048826	0.6827006246730725	0.4321572606441782	0.5132752663733726	0.9589732762820867	0.3754098526139432	0.472472639319623	1.0917861443719903	0.38308128373338807	0.48953551252877836	1.107553820065763	0.43285096473589346	0.5665636199418662	1.11120473854553	0.07421158421116707	0.35720643525168766	0.36282067930725875	-0.003668933222844457	0.4328068849159022	0.6617759917229821	0.01019556505878596	0.47223672674002193	0.9591911921979629	0.07739253448923832	0.4340570202814707	1.0568107899033319	0.049530963964729696	0.4274427653118655	1.0728503724648102	-0.002359941995167038	0.502813626467497	1.0735876211269004
